PathFileType	4	(X/Y/Z)	..\data\2015007\dynamic\2015007_C4_04.trc
DataRate	CameraRate	NumFrames	NumMarkers	Units	OrigDataRate	OrigDataStartFrame	OrigNumFrames
100.000000	100.000000	4	52	mm	100.000000	20	162
Frame#	Time	L_IAS			L_IPS			R_IPS			R_IAS			L_FTC			L_FLE			L_FME			L_FAX			L_TTC			L_FAL			L_TAM			L_FCC			L_FM1			L_FM2			L_FM5			R_FTC			R_FLE			R_FME			R_FAX			R_TTC			R_FAL			R_TAM			R_FCC			R_FM1			R_FM2			R_FM5			CV7			TV10			SXS			SJN			L_SIA			L_SRS			L_SAA			L_SAE			L_HLE			L_HME			L_UOA			L_RSP			L_UHE			L_HM2			L_HM5			R_SIA			R_SRS			R_SAA			R_SAE			R_HLE			R_HME			R_UOA			R_RSP			R_UHE			R_HM2			R_HM5			
		X1	Y1	Z1	X2	Y2	Z2	X3	Y3	Z3	X4	Y4	Z4	X5	Y5	Z5	X6	Y6	Z6	X7	Y7	Z7	X8	Y8	Z8	X9	Y9	Z9	X10	Y10	Z10	X11	Y11	Z11	X12	Y12	Z12	X13	Y13	Z13	X14	Y14	Z14	X15	Y15	Z15	X16	Y16	Z16	X17	Y17	Z17	X18	Y18	Z18	X19	Y19	Z19	X20	Y20	Z20	X21	Y21	Z21	X22	Y22	Z22	X23	Y23	Z23	X24	Y24	Z24	X25	Y25	Z25	X26	Y26	Z26	X27	Y27	Z27	X28	Y28	Z28	X29	Y29	Z29	X30	Y30	Z30	X31	Y31	Z31	X32	Y32	Z32	X33	Y33	Z33	X34	Y34	Z34	X35	Y35	Z35	X36	Y36	Z36	X37	Y37	Z37	X38	Y38	Z38	X39	Y39	Z39	X40	Y40	Z40	X41	Y41	Z41	X42	Y42	Z42	X43	Y43	Z43	X44	Y44	Z44	X45	Y45	Z45	X46	Y46	Z46	X47	Y47	Z47	X48	Y48	Z48	X49	Y49	Z49	X50	Y50	Z50	X51	Y51	Z51	X52	Y52	Z52	

21	0.2	152.0023345947266	892.944030761719	-350.7772521972657	-60.22213745117189	907.414001464844	-268.4720764160157	-50.18396377563478	919.1116943359377	-162.2144470214844	169.1220703125	912.9902954101565	-105.0031509399414	62.73216247558595	784.1645507812502	-404.3751831054689	74.97599029541017	420.8456115722657	-364.5408020019532	94.79281616210939	394.3889465332032	-245.3213958740235	32.77891540527344	384.2107849121095	-371.5226135253907	71.86974334716798	339.9666748046876	-328.1518249511719	-213.4252624511719	178.1184387207032	-331.7991638183594	-185.6295013427735	155.7518005371094	-256.8273620605469	-267.5424804687501	175.4117736816407	-269.6925964355469	-178.6779327392578	37.57244491577149	-282.9184875488282	-175.8002471923828	50.02619934082033	-328.3167419433594	-222.4397583007813	77.20774078369142	-362.2543334960938	89.48553466796876	812.0531005859377	-34.83570861816407	197.4708557128907	447.5036621093751	-99.48252105712893	180.2157440185547	431.144256591797	-225.2676391601563	190.1799011230469	391.9201660156251	-93.99063873291017	234.9834899902344	385.4653320312501	-144.5938873291016	164.7239837646485	65.87213134765626	-121.3016357421875	186.8125305175782	78.54101562500001	-203.885238647461	119.1947174072266	17.73987770080567	-171.8617401123047	298.8803710937501	20.42889404296875	-190.7454681396485	295.6103820800782	32.63085937500001	-145.6688385009766	243.8962860107422	12.85566997528077	-93.46388244628908	45.37982177734376	1404.945678710938	-209.2785186767579	-53.28424453735353	1168.191772460938	-234.9900054931641	219.2865753173829	1071.3818359375	-226.179183959961	158.5077819824219	1322.347412109375	-217.8513488769532	-50.94829559326173	1218.906372070313	-318.3137512207032	-9.965678215026857	1346.809448242188	-320.4986267089844	37.14024734497071	1354.081298828125	-381.1724853515626	87.63164520263673	1360.726440429688	-390.7449645996095	82.3186721801758	1050.192626953125	-476.6975708007814	52.8314666748047	1035.149780273438	-404.5149841308595	55.71277236938478	1018.27197265625	-453.0388793945314	226.5144500732422	857.9329833984377	-436.928924560547	170.0887908935547	837.2053833007815	-488.035369873047	268.7950439453126	806.6245117187502	-444.4475708007814	187.1622009277344	778.3149414062502	-488.1353454589845	-58.48788833618165	1205.142211914063	-152.5637817382813	-14.95827674865723	1327.608764648438	-139.1355285644532	35.21009063720704	1326.5712890625	-65.43331909179689	81.51265716552736	1330.82958984375	-45.57851028442384	38.09066390991212	1017.431701660156	17.6454086303711	7.772475242614748	1005.699279785156	-47.81367492675782	11.61370086669922	989.3549804687502	-2.282637834548951	104.8568267822266	795.223083496094	22.72996139526368	54.93018341064455	801.4324951171877	59.10290527343751	123.5498733520508	716.4747314453126	36.24528503417969	50.20827484130861	733.9822998046876	73.34017181396486	
22	0.21	162.6866607666016	894.2656250000002	-349.7027587890626	-49.45393753051759	908.7075195312502	-266.4911804199219	-38.95583724975587	920.4283447265627	-160.4170684814453	180.3753051757813	913.7344970703127	-103.7819747924805	74.4573440551758	785.497985839844	-403.0027770996095	96.68340301513675	422.7066345214845	-364.1420898437501	118.9737014770508	395.5925292968751	-245.2317047119141	55.02727127075197	386.5367736816407	-370.8934020996094	94.72090911865236	341.8111877441407	-328.2108154296876	-191.8240966796875	182.0524291992188	-330.4000854492188	-163.2858428955078	158.5385437011719	-255.9585723876954	-245.5619506835938	178.2405395507813	-267.8458557128907	-156.2236633300782	40.81819534301759	-285.1808776855469	-154.1155242919922	54.08213424682619	-330.1439208984376	-201.3075714111329	82.24276733398439	-362.7427673339844	100.4372177124024	813.1311035156252	-33.50908279418946	202.1135253906251	447.012420654297	-98.98521423339847	184.5511932373047	430.9839172363282	-224.7038269042969	193.7789001464844	391.3784179687501	-93.58812713623048	238.7876739501954	384.5785217285157	-144.0956115722657	164.9821014404297	65.80456542968751	-121.6994781494141	187.0726623535157	78.52262115478517	-204.3273925781251	119.2628479003907	17.7290267944336	-172.130844116211	298.9805908203126	20.40310096740723	-190.8589782714844	295.7331237792969	32.78610229492188	-145.6039428710938	243.8388977050782	13.03689193725586	-93.44301605224611	56.6198081970215	1406.330810546875	-208.4584045410157	-42.26618576049805	1169.578857421875	-233.5748443603516	229.9933166503907	1072.4931640625	-225.5312957763672	169.6779022216797	1323.63720703125	-217.2937011718751	-40.13418579101563	1220.164306640625	-316.8840637207032	0.9014169573783877	1348.072875976563	-319.4089355468751	47.73680496215821	1355.261108398438	-380.2840576171876	98.26319885253909	1361.799438476563	-390.0237426757814	91.56579589843751	1051.0703125	-475.1055297851564	62.07707595825197	1036.484375	-402.8225097656251	64.62934875488283	1019.542663574219	-451.2537536621095	232.7779998779297	856.5711669921877	-435.5973205566407	176.1629638671875	836.9956054687502	-487.0267028808595	273.9307250976563	804.3880004882815	-442.7952575683595	192.1100769042969	777.755310058594	-487.1392517089845	-47.40929031372071	1206.722900390625	-151.0279693603516	-3.51123857498169	1329.11572265625	-137.9720001220703	46.94260025024415	1328.167358398438	-64.44411468505861	93.34521484375001	1332.418334960938	-44.79555892944337	51.89162445068361	1018.660217285156	19.10679435729981	20.82478332519532	1006.770141601563	-46.00897979736329	25.18272209167481	990.5644531250002	-0.5480337142944337	119.9787063598633	797.0725708007815	23.84417724609375	70.21539306640626	802.9199218750002	60.51545715332033	139.4603881835938	718.4867553710939	37.37314987182618	66.1587371826172	735.5053100585939	74.86782836914064	
23	0.22	173.1719665527344	895.7781372070315	-348.8219299316407	-38.85010147094727	910.104675292969	-264.4798583984376	-27.83498191833497	921.7062988281252	-158.636215209961	191.519027709961	914.3165283203127	-102.647201538086	85.92947387695314	787.1108398437502	-401.7784729003907	118.3568878173828	424.9588012695314	-363.7265014648438	142.4992218017578	397.4144287109376	-245.0377807617188	77.24271392822267	389.1257324218751	-370.1823425292969	117.7080230712891	344.0313110351563	-328.1262817382813	-169.1803588867188	184.9768829345703	-328.9637756347657	-139.965805053711	160.6164855957032	-254.9812469482422	-222.7165222167969	179.6282043457032	-266.1045227050782	-131.5900421142578	43.66259765625001	-287.1494445800782	-130.2949523925782	57.72185516357423	-331.7485656738282	-178.1712341308594	86.26806640625001	-363.1008605957032	111.0980758666992	814.0097656250002	-32.33018112182618	206.2464599609376	446.5125732421876	-98.49674224853518	188.6245880126953	430.778778076172	-224.1849670410157	196.9239654541016	390.8225708007814	-93.19361114501955	242.1965942382813	383.7116088867188	-143.5610961914063	165.1582794189453	65.70252990722658	-122.1052551269532	187.3193511962891	78.4779739379883	-204.7648010253907	119.2670059204102	17.71177101135254	-172.4314270019532	299.0419311523438	20.35848999023438	-190.9460601806641	295.7842712402344	32.86571884155274	-145.5601501464844	243.7404022216797	13.11393547058106	-93.4731903076172	67.78968048095705	1407.723754882813	-207.7048492431641	-31.34556770324708	1170.9755859375	-232.0869140625001	240.4119567871094	1073.56298828125	-225.0976562500001	180.7664184570313	1324.912475585938	-216.8206634521485	-29.46819496154786	1221.408813476563	-315.3940734863282	11.63932037353516	1349.309692382813	-318.3274841308594	58.16352844238283	1356.37255859375	-379.4326782226563	108.7056045532227	1362.81396484375	-389.3966369628907	100.6032104492188	1051.925415039063	-473.5810546875001	71.1492385864258	1037.787841796875	-401.1954650878907	73.38452148437501	1020.792907714844	-449.527069091797	238.7821502685547	855.2059326171877	-434.4167785644532	181.9934387207032	836.8110351562502	-486.152313232422	278.8000488281251	802.1661376953127	-441.3457641601564	196.8089447021485	777.2393798828127	-486.3166503906251	-36.43376159667969	1208.357177734375	-149.4361267089844	7.874435424804689	1330.667602539063	-136.8234252929688	58.65866470336915	1329.822021484375	-63.49362945556642	105.1605072021485	1334.061401367188	-44.08478927612305	65.81092834472658	1019.904968261719	20.52709197998047	33.94878768920899	1007.848999023438	-44.22090148925782	38.86903381347657	991.7815551757815	1.160956501960755	135.333984375	798.9985961914065	24.84242057800294	85.75218200683595	804.4553833007815	61.84896087646486	155.6642761230469	720.6085815429689	38.37071609497071	82.44457244873048	737.0871582031251	76.32946014404298	
24	0.23	183.4972534179688	897.4869384765627	-348.0976867675782	-28.37307739257813	911.572204589844	-262.4942932128907	-16.81542396545411	922.949401855469	-156.9020385742188	202.5597839355469	914.7888183593752	-101.5930938720703	97.21788024902347	788.9402465820315	-400.7080993652345	139.9466094970703	427.5527648925782	-363.3208007812501	165.3297729492188	399.7803344726564	-244.7654724121094	99.36929321289065	391.9080810546876	-369.4297485351563	140.7492980957032	346.5874023437501	-327.9442749023438	-145.5728912353516	186.7899932861328	-327.5334472656251	-115.7399826049805	161.9175567626953	-253.9318542480469	-199.0567016601563	179.5751037597657	-264.4965209960938	-105.012680053711	45.94991683959962	-288.7201538085938	-104.5413131713867	60.74900817871095	-333.0236816406251	-153.1887359619141	89.11168670654298	-363.2881164550782	121.4630889892578	814.7119140625002	-31.30290412902833	209.9484100341797	446.0283508300782	-98.00980377197268	192.4748992919922	430.5455017089845	-223.7068023681641	199.7051391601563	390.2813415527345	-92.79681396484376	245.2679290771485	382.8869323730469	-142.9952545166016	165.2853546142578	65.58261108398439	-122.5044937133789	187.5651092529297	78.42041015625001	-205.1880035400391	119.2230377197266	17.70676612854004	-172.7442474365235	299.0800170898438	20.2801685333252	-191.0112609863282	295.7924194335938	32.86838912963868	-145.5346374511719	243.6188507080079	13.09994220733643	-93.5409622192383	78.89123535156251	1409.108154296875	-207.0115966796876	-20.49934959411621	1172.364501953125	-230.5297546386719	250.5811462402344	1074.612548828125	-224.8552398681641	191.7782135009766	1326.16748046875	-216.4220733642579	-18.9306640625	1222.627563476563	-313.8532714843751	22.25922203063965	1350.505615234375	-317.2519531250001	68.4418411254883	1357.407958984375	-378.6090087890626	118.9738464355469	1363.770629882813	-388.8506774902345	109.420883178711	1052.758544921875	-472.1187133789064	80.04905700683595	1039.063110351563	-399.6219177246095	81.96446990966798	1022.027221679688	-447.8575744628907	244.5340881347657	853.848083496094	-433.3868713378907	187.5797882080078	836.6545410156252	-485.3939514160157	283.4308471679688	799.9890136718752	-440.1218872070314	201.2704010009766	776.7733154296877	-485.6470031738282	-25.52489662170411	1210.014038085938	-147.7998352050782	19.20160484313965	1332.24267578125	-135.6925506591797	70.3546829223633	1331.518188476563	-62.58121490478517	116.9482727050782	1335.750854492188	-43.44123458862305	79.81833648681642	1021.169006347656	21.90402412414551	47.14297485351563	1008.940124511719	-42.46344757080079	52.66321182250978	992.9976196289065	2.835949182510376	150.9043731689453	801.0006103515627	25.71671676635743	101.5226135253907	806.039489746094	63.09290313720705	172.1302032470703	722.8297729492189	39.21562194824219	99.03836059570315	738.7266235351564	77.70582580566408	
